<?xml version="1.0" standalone="no"?>
<!DOCTYPE svg PUBLIC "-//W3C//DTD SVG 20010904//EN"
 "http://www.w3.org/TR/2001/REC-SVG-20010904/DTD/svg10.dtd">
<svg version="1.0" xmlns="http://www.w3.org/2000/svg"
 width="260.000000pt" height="260.000000pt" viewBox="0 0 260.000000 260.000000"
 preserveAspectRatio="xMidYMid meet">
<metadata>
Created by potrace 1.11, written by Peter Selinger 2001-2013
</metadata>
<g transform="translate(0.000000,260.000000) scale(0.100000,-0.100000)"
fill="#000000" stroke="none">
<path d="M1015 2373 c-311 -66 -569 -272 -713 -568 -51 -104 -61 -129 -56
-137 3 -4 1 -8 -5 -8 -13 0 -37 -84 -52 -180 -6 -41 -17 -100 -25 -130 -8 -30
-17 -111 -20 -180 -6 -113 -4 -135 20 -230 31 -127 67 -202 145 -306 130 -174
393 -360 608 -429 171 -56 248 -67 448 -68 161 -1 188 1 260 22 125 37 179 65
299 154 61 46 131 97 156 114 62 43 208 195 260 272 54 81 103 187 132 287 21
71 23 98 22 274 -1 180 -3 202 -28 285 -14 50 -46 131 -71 180 -44 89 -147
230 -159 218 -3 -3 -6 3 -6 15 0 53 -43 3 -84 -98 -26 -63 -26 -67 -16 -170
12 -116 21 -163 45 -229 19 -53 19 -131 1 -191 -7 -25 -16 -79 -20 -120 -10
-98 -38 -161 -94 -210 -25 -22 -49 -40 -53 -40 -5 0 -9 -4 -9 -9 0 -11 62 2
122 26 24 9 62 32 86 51 24 19 46 31 49 28 12 -11 -33 -81 -65 -101 -17 -11
-31 -26 -32 -33 0 -7 -4 -11 -9 -7 -6 3 -14 -2 -20 -12 -5 -10 -31 -29 -58
-43 -26 -13 -66 -36 -88 -50 -78 -52 -130 -65 -260 -65 -66 0 -129 4 -140 9
-11 5 -27 10 -35 11 -39 5 -59 18 -70 46 -8 19 -16 26 -20 19 -5 -8 -14 -2
-26 19 -10 17 -25 31 -32 31 -8 0 -12 6 -9 14 3 7 -1 23 -8 34 -8 10 -11 22
-8 26 3 3 -2 6 -11 6 -14 0 -17 5 -13 22 8 30 -10 63 -27 49 -14 -12 -26 -5
-26 16 0 7 7 13 16 13 15 0 44 23 44 34 0 18 45 47 78 50 20 2 32 2 25 0 -8
-4 -7 -14 5 -36 24 -45 44 -68 54 -62 4 3 8 1 8 -5 0 -22 47 -57 77 -56 35 0
35 0 -26 75 -60 74 -80 124 -92 227 -12 112 -44 240 -64 259 -9 9 -22 29 -30
45 -9 16 -19 29 -24 29 -5 0 -11 9 -14 19 -2 11 -23 32 -46 47 -37 24 -44 25
-56 13 -15 -14 -9 -60 15 -114 4 -11 23 -65 41 -120 18 -55 36 -105 41 -111 5
-7 9 -29 10 -50 0 -22 5 -44 10 -51 6 -7 5 -14 -3 -18 -8 -6 -7 -10 2 -16 11
-7 12 -12 2 -29 -7 -11 -13 -33 -13 -48 0 -17 -9 -37 -22 -49 -26 -23 -68 -36
-68 -21 0 7 -4 7 -13 0 -8 -7 -18 -7 -27 -2 -10 6 -24 0 -47 -21 -72 -62 -169
-94 -315 -103 -48 -3 -98 -2 -112 4 -13 5 -81 12 -150 16 l-125 7 -34 37 c-20
20 -32 41 -28 48 11 18 95 31 266 40 124 7 168 13 197 28 21 10 38 25 38 32 0
7 7 12 16 10 24 -4 53 41 60 93 5 39 3 49 -17 72 -20 22 -44 31 -149 53 -152
31 -205 53 -255 104 l-38 39 30 34 c16 19 47 63 68 98 21 35 43 69 49 74 34
32 50 60 55 98 5 37 10 43 41 54 l35 12 -37 0 c-31 1 -40 6 -53 31 -10 20 -23
30 -38 30 -35 0 -126 -67 -157 -117 -56 -87 -65 -217 -22 -303 12 -24 19 -46
17 -49 -3 -2 -5 1 -5 8 0 7 -6 11 -14 8 -8 -3 -16 -3 -18 1 -4 8 -65 52 -73
52 -3 0 -18 15 -34 32 -26 29 -29 39 -27 90 2 31 8 64 15 71 6 8 11 19 9 23
-3 14 63 83 102 107 19 11 37 24 40 28 3 4 40 25 82 46 43 22 75 43 71 47 -3
3 -1 6 5 6 6 0 13 13 17 29 6 29 32 57 92 99 18 13 46 36 62 52 16 17 39 30
50 30 37 0 162 -183 144 -212 -2 -5 -18 -8 -35 -8 -25 0 -28 -3 -19 -14 8 -10
7 -22 -4 -50 -15 -35 -16 -36 -73 -37 l-57 0 50 -15 c73 -21 212 -36 360 -39
191 -4 245 -24 341 -125 45 -48 51 -51 84 -45 19 4 43 13 52 22 15 13 18 13
27 -5 11 -21 12 -48 9 -189 -3 -102 -17 -110 -20 -10 l-2 72 -5 -80 c-5 -59
-10 -80 -20 -80 -21 0 -28 -21 -42 -119 -15 -103 -3 -155 43 -189 41 -31 114
-33 162 -5 48 28 123 122 131 163 3 17 -1 116 -9 220 -12 161 -14 175 -14 90
0 -55 -1 -105 -1 -112 -1 -6 -19 -14 -42 -18 -50 -9 -74 12 -88 77 -14 64 -11
252 5 327 19 89 18 131 -1 131 -13 0 -14 3 -3 23 7 12 13 38 14 57 2 44 44
140 60 140 7 0 15 -8 17 -17 3 -10 5 7 6 38 l1 57 -47 30 c-76 48 -163 83
-223 89 -30 3 -61 9 -69 13 -31 16 -100 -9 -143 -52 -24 -24 -60 -58 -80 -76
-21 -18 -38 -39 -38 -46 0 -26 -85 -118 -132 -142 -26 -13 -54 -24 -62 -24
-18 0 -75 67 -82 98 -4 12 -10 22 -15 22 -4 0 -11 16 -15 35 -3 19 -10 38 -15
41 -17 10 -10 83 9 102 10 10 22 26 25 36 4 9 11 15 16 12 5 -3 15 2 22 11 12
14 12 16 0 8 -11 -6 -13 -4 -8 8 8 21 -3 21 -98 0z m440 -458 c86 -17 144 -41
186 -79 36 -31 99 -125 98 -145 0 -19 -4 -14 -50 67 -20 35 -46 63 -77 83 -65
41 -101 49 -179 38 -62 -8 -72 -7 -117 15 -38 18 -45 25 -30 29 37 9 90 7 169
-8z m825 -381 c0 -8 5 -14 10 -14 6 0 10 -7 10 -16 0 -8 4 -13 9 -10 10 7 16
-17 26 -100 12 -100 12 -129 -1 -184 -7 -30 -15 -75 -19 -100 -4 -35 -10 -46
-24 -47 -18 -2 -19 4 -14 70 3 40 0 105 -7 145 -11 66 -14 72 -35 72 -28 0
-38 35 -33 115 3 43 6 50 25 53 12 2 25 12 28 23 7 21 25 17 25 -7z m-1526
-374 c39 -6 71 -12 73 -14 2 -2 -24 -7 -59 -10 -44 -5 -70 -14 -91 -32 -34
-29 -71 -31 -89 -5 -7 10 -29 26 -48 37 l-35 18 63 7 c34 3 66 9 69 13 4 4 17
5 28 2 11 -4 51 -11 89 -16z m-269 -10 c8 -13 -5 -13 -25 0 -13 8 -13 10 2 10
9 0 20 -4 23 -10z m425 6 c0 -11 -19 -15 -25 -6 -3 5 1 10 9 10 9 0 16 -2 16
-4z m-575 -306 c9 -16 13 -30 11 -30 -3 0 -12 14 -21 30 -9 17 -13 30 -11 30
3 0 12 -13 21 -30z m1645 -465 c0 -7 -89 -51 -149 -74 -28 -10 -51 -15 -51
-10 0 5 6 9 13 9 8 0 38 18 68 40 36 26 65 39 87 40 17 0 32 -2 32 -5z"/>
<path d="M1993 1675 c0 -33 2 -45 4 -27 2 18 2 45 0 60 -2 15 -4 0 -4 -33z"/>
<path d="M745 1619 c-13 -21 -7 -119 8 -143 23 -35 77 -50 150 -41 76 8 86 14
56 31 -19 10 -24 21 -24 50 l0 38 -72 21 c-40 11 -82 28 -93 37 -12 10 -22 13
-25 7z"/>
<path d="M1077 1508 c18 -9 21 -17 17 -37 -4 -14 -12 -30 -19 -36 -11 -7 1
-25 49 -76 72 -76 96 -131 96 -223 1 -54 2 -59 14 -43 24 31 49 154 42 200
-10 59 -38 117 -76 155 -36 37 -100 72 -127 71 -15 0 -14 -2 4 -11z"/>
</g>
</svg>
